<?xml version="1.0" encoding="UTF-8"?>
<svg id="Ebene_1" data-name="Ebene 1" xmlns="http://www.w3.org/2000/svg" width="32" height="32" xmlns:xlink="http://www.w3.org/1999/xlink" viewBox="0 0 32 32">
  <defs>
    <style>
      .cls-1 {
        fill: none;
      }

      .cls-2 {
        fill: rgba(255, 255, 255, .2);
      }

      .cls-3 {
        fill: #fff;
      }

      .cls-4 {
        fill: #0085ff;
      }

      .cls-5 {
        clip-path: url(#clippath);
      }
    </style>
    <clipPath id="clippath">
      <path class="cls-1" d="M16,0h0c8.84,0,16,7.16,16,16s-7.16,16-16,16S0,24.84,0,16,7.16,0,16,0Z"/>
    </clipPath>
  </defs>
  <g class="cls-5">
    <g>
      <path class="cls-4" d="M16,0h0c8.84,0,16,7.16,16,16h0c0,8.84-7.16,16-16,16h0C7.16,32,0,24.84,0,16h0C0,7.16,7.16,0,16,0Z"/>
      <path class="cls-2" d="M0,26h32v1H0v-1Z"/>
      <path class="cls-2" d="M8,0v32h-1V0h1ZM16.5,0v32h-1V0h1Z"/>
      <path class="cls-2" d="M0,5h32v1H0v-1ZM0,15.5h32v1H0v-1Z"/>
      <path class="cls-2" d="M25,0v32h-1V0h1Z"/>
    </g>
  </g>
  <path class="cls-3" d="M6.82,8.24c0-1.17.95-2.12,2.12-2.12h14.12c1.17,0,2.12.95,2.12,2.12v5.03c1.51.39,2.42,1.93,2.03,3.44-.26,1-1.03,1.78-2.03,2.03v5.03c0,1.17-.95,2.12-2.12,2.12h-14.12c-1.17,0-2.12-.95-2.12-2.12v-5.03c-1.51-.39-2.42-1.93-2.03-3.44.26-1,1.03-1.78,2.03-2.03v-5.03ZM8.24,13.27c1.51.39,2.42,1.93,2.03,3.44-.26,1-1.03,1.78-2.03,2.03v5.03c0,.39.32.71.71.71h14.12c.39,0,.71-.32.71-.71v-5.03c-1.51-.39-2.42-1.93-2.03-3.44.26-1,1.03-1.78,2.03-2.03v-5.03c0-.39-.32-.71-.71-.71h-14.12c-.39,0-.71.32-.71.71v5.03ZM7.53,14.59c-.78,0-1.41.63-1.41,1.41s.63,1.41,1.41,1.41,1.41-.63,1.41-1.41-.63-1.41-1.41-1.41M24.47,14.59c-.78,0-1.41.63-1.41,1.41s.63,1.41,1.41,1.41,1.41-.63,1.41-1.41-.63-1.41-1.41-1.41"/>
  <path class="cls-3" d="M20.85,10.35h-9.7l-.09,2.81h.54c.3-1.77.86-2.04,3.07-2.11l.48-.02v8.95c0,.76-.16.94-1.48,1.06v.59h4.65v-.59c-1.32-.12-1.49-.3-1.49-1.06v-8.95h.49c2.2.08,2.77.36,3.07,2.13h.54l-.09-2.81Z"/>
</svg>